<svg width="30" height="30" viewBox="0 0 30 30" fill="none" xmlns="http://www.w3.org/2000/svg">
<path d="M30 15C30 23.2843 23.2843 30 15 30C6.71573 30 0 23.2843 0 15C0 6.71573 6.71573 0 15 0C23.2843 0 30 6.71573 30 15Z" fill="black"/>
<path fill-rule="evenodd" clip-rule="evenodd" d="M15.092 5.24761C15.1878 5.25714 15.34 5.27913 15.4302 5.29644C15.5204 5.31376 15.6541 5.33923 15.7274 5.35304C15.8007 5.36685 15.8653 5.38399 15.8709 5.39115C15.8766 5.39831 15.9273 5.41433 15.9837 5.42679C16.1812 5.47038 16.2912 5.5008 16.3014 5.51461C16.307 5.52228 16.3508 5.53507 16.3987 5.54306C16.4465 5.55104 16.4904 5.56518 16.4961 5.57447C16.5019 5.58375 16.5442 5.5977 16.5902 5.60546C16.6361 5.61319 16.6983 5.63236 16.7284 5.64803C16.7585 5.66368 16.7987 5.67654 16.8178 5.67663C16.8368 5.67669 16.8575 5.68491 16.8637 5.69489C16.8699 5.70486 16.9069 5.71901 16.946 5.72634C16.9851 5.73366 17.0429 5.75305 17.0744 5.76944C17.1058 5.78583 17.1524 5.79929 17.1777 5.79937C17.2031 5.79943 17.2238 5.80829 17.2238 5.81903C17.2238 5.82977 17.2562 5.84462 17.2958 5.85202C17.3354 5.85943 17.3729 5.87367 17.379 5.88363C17.3852 5.89361 17.4059 5.90208 17.4249 5.90247C17.444 5.90286 17.4965 5.92094 17.5416 5.94269C17.5867 5.96443 17.6352 5.98252 17.6495 5.98291C17.6637 5.98329 17.6914 5.99248 17.711 6.00334C17.7751 6.03892 17.9386 6.10634 17.9607 6.10634C17.9726 6.10634 17.9823 6.11536 17.9823 6.12641C17.9823 6.13744 18.0036 6.1518 18.0296 6.1583C18.0898 6.1734 18.2001 6.34047 18.2191 6.44529C18.2271 6.48952 18.2405 6.53491 18.2489 6.54616C18.2573 6.55741 18.2708 6.61265 18.2789 6.6689C18.2871 6.72516 18.2998 6.78039 18.3071 6.79164C18.3145 6.80289 18.3313 6.86273 18.3444 6.92461C18.3575 6.98649 18.3832 7.09696 18.4014 7.17009C18.4197 7.24323 18.4439 7.34909 18.4551 7.40535C18.4664 7.4616 18.4841 7.52604 18.4943 7.54854C18.5046 7.57105 18.5191 7.63088 18.5267 7.68151C18.5342 7.73214 18.5474 7.78277 18.556 7.79403C18.5646 7.80528 18.5783 7.86051 18.5864 7.91677C18.5946 7.97302 18.6073 8.02826 18.6146 8.03951C18.6277 8.05943 18.6534 8.16838 18.6992 8.3975C18.7116 8.45938 18.7301 8.52842 18.7403 8.55093C18.7506 8.57343 18.7651 8.63327 18.7727 8.6839C18.7802 8.73453 18.7935 8.78516 18.8023 8.79641C18.811 8.80766 18.8247 8.86518 18.8326 8.92424C18.8406 8.9833 18.8544 9.0361 18.8633 9.0416C18.8722 9.04709 18.8858 9.10218 18.8935 9.16404C18.9013 9.2259 18.9153 9.28123 18.9247 9.287C18.934 9.29279 18.9481 9.35277 18.956 9.4203C18.9638 9.48783 18.9777 9.54308 18.9867 9.54308C18.9958 9.54308 19.0096 9.59831 19.0175 9.66582C19.0253 9.73333 19.0392 9.78856 19.0482 9.78856C19.0573 9.78856 19.0711 9.84379 19.079 9.9113C19.0868 9.97881 19.1016 10.034 19.1117 10.034C19.1219 10.034 19.1302 10.0598 19.1302 10.0913C19.1302 10.1552 19.1858 10.1844 19.3557 10.2099C19.4065 10.2175 19.4572 10.2307 19.4685 10.2391C19.4797 10.2475 19.5305 10.2606 19.5812 10.2681C19.6319 10.2757 19.6919 10.29 19.7145 10.2999C19.754 10.3174 19.8584 10.3429 20.0527 10.3823C20.1034 10.3926 20.191 10.4146 20.2474 10.4312C20.3038 10.4477 20.4099 10.4764 20.4832 10.4949C20.744 10.5609 20.8424 10.589 20.8769 10.6076C20.8961 10.618 20.9515 10.6325 20.9998 10.6399C21.0483 10.6473 21.0971 10.6604 21.1084 10.6691C21.1196 10.6777 21.1728 10.6914 21.2265 10.6993C21.2802 10.7073 21.3288 10.7215 21.3346 10.7308C21.3404 10.74 21.3865 10.7539 21.4371 10.7614C21.4877 10.769 21.5336 10.7825 21.5391 10.7914C21.5446 10.8003 21.5952 10.8139 21.6516 10.8216C21.7079 10.8294 21.7587 10.8432 21.7643 10.8523C21.77 10.8615 21.8207 10.8753 21.8771 10.883C21.9334 10.8907 21.9845 10.9051 21.9906 10.915C21.9967 10.9249 22.0475 10.939 22.1034 10.9464C22.1593 10.9538 22.2051 10.967 22.2051 10.9758C22.2051 10.9845 22.2512 10.998 22.3075 11.0057C22.3639 11.0135 22.415 11.0279 22.4211 11.0378C22.4272 11.0476 22.478 11.0617 22.5339 11.0692C22.5898 11.0766 22.6355 11.0898 22.6355 11.0985C22.6355 11.1073 22.6816 11.1207 22.738 11.1285C22.7944 11.1362 22.8455 11.1506 22.8516 11.1605C22.8577 11.1704 22.9085 11.1845 22.9644 11.1919C23.0203 11.1993 23.066 11.2122 23.066 11.2206C23.066 11.229 23.0937 11.2414 23.1275 11.2482C23.1783 11.2583 23.189 11.2704 23.189 11.3178C23.189 11.3493 23.1723 11.3886 23.1519 11.4052C23.0725 11.4697 22.9848 11.5274 22.9661 11.5274C22.9552 11.5274 22.9434 11.5343 22.9396 11.5427C22.9292 11.566 22.8041 11.6501 22.7798 11.6501C22.7681 11.6501 22.7585 11.6593 22.7585 11.6706C22.7585 11.6818 22.7453 11.691 22.7292 11.691C22.7131 11.691 22.6874 11.7026 22.672 11.7166C22.6303 11.7547 22.5707 11.7919 22.5074 11.819C22.4764 11.8323 22.451 11.8504 22.451 11.8592C22.451 11.868 22.4379 11.8752 22.4217 11.8752C22.4057 11.8752 22.3799 11.8867 22.3645 11.9007C22.349 11.9148 22.3092 11.9407 22.2759 11.9584C22.0974 12.0529 22.0299 12.0913 22.0204 12.1037C22.0146 12.1112 21.9846 12.1237 21.9537 12.1315C21.9228 12.1392 21.8976 12.1527 21.8976 12.1615C21.8976 12.1704 21.8723 12.1839 21.8414 12.1916C21.8105 12.1994 21.7805 12.2119 21.7748 12.2194C21.7594 12.2397 21.5792 12.3252 21.552 12.3252C21.5391 12.3252 21.5286 12.3337 21.5286 12.344C21.5286 12.3544 21.5009 12.3689 21.4671 12.3763C21.4333 12.3837 21.4056 12.3976 21.4056 12.407C21.4056 12.4165 21.3779 12.4303 21.3441 12.4377C21.3103 12.4451 21.2826 12.4597 21.2826 12.47C21.2826 12.4804 21.2729 12.4889 21.261 12.4889C21.2422 12.4889 21.1784 12.5145 21.0059 12.5911C20.8334 12.6678 20.7695 12.6934 20.7508 12.6934C20.7389 12.6934 20.7291 12.7026 20.7291 12.7139C20.7291 12.7251 20.713 12.7344 20.6933 12.7345C20.6735 12.7345 20.6327 12.7475 20.6024 12.7632C20.5722 12.779 20.5191 12.7981 20.4845 12.8056C20.4499 12.8132 20.4217 12.8279 20.4217 12.8382C20.4217 12.8486 20.4055 12.8571 20.3858 12.8572C20.3661 12.8573 20.3235 12.8711 20.2912 12.8879C20.2589 12.9047 20.222 12.9185 20.2092 12.9186C20.1964 12.9187 20.1602 12.9321 20.1287 12.9485C20.0972 12.9649 20.0396 12.9843 20.0006 12.9916C19.9616 12.9989 19.9297 13.013 19.9297 13.023C19.9297 13.033 19.9089 13.0412 19.8836 13.0413C19.8582 13.0414 19.8127 13.0543 19.7824 13.0701C19.7522 13.0858 19.6969 13.1052 19.6595 13.1132C19.6221 13.1212 19.5822 13.1348 19.571 13.1435C19.5597 13.1521 19.5182 13.1659 19.4787 13.1742C19.4393 13.1824 19.3977 13.1962 19.3865 13.2049C19.3752 13.2136 19.3268 13.2271 19.2788 13.235C19.2309 13.2429 19.1917 13.2566 19.1917 13.2654C19.1917 13.2742 19.146 13.2874 19.0901 13.2949C19.0342 13.3023 18.9834 13.3164 18.9773 13.3263C18.9712 13.3361 18.9201 13.3505 18.8637 13.3583C18.8074 13.366 18.7613 13.3795 18.7613 13.3882C18.7613 13.397 18.7134 13.4105 18.6548 13.4182C18.5963 13.426 18.5386 13.4386 18.5267 13.4464C18.5046 13.4607 18.3619 13.4962 18.177 13.5334C18.1207 13.5447 18.0561 13.5624 18.0335 13.5726C18.011 13.5829 17.9418 13.5974 17.8798 13.6049C17.8178 13.6125 17.7578 13.6245 17.7466 13.6317C17.7239 13.646 17.5173 13.6856 17.2956 13.718C17.2167 13.7296 17.1383 13.7448 17.1214 13.7519C17.0923 13.764 17.024 13.7744 16.4756 13.8502C15.7229 13.9541 14.9591 13.9962 14.3918 13.965C13.8597 13.9357 12.9757 13.846 12.8986 13.8135C12.8817 13.8064 12.7894 13.7903 12.6936 13.7777C12.2748 13.7229 12.1811 13.7075 12.1811 13.6936C12.1811 13.6855 12.112 13.6724 12.0274 13.6645C11.9428 13.6565 11.8737 13.6427 11.8737 13.6337C11.8737 13.6246 11.8136 13.6108 11.7401 13.603C11.6667 13.5951 11.6021 13.5815 11.5967 13.5727C11.5912 13.5638 11.5314 13.5502 11.4637 13.5424C11.396 13.5345 11.3359 13.5205 11.3301 13.5111C11.3243 13.5018 11.2688 13.4878 11.2069 13.48C11.1449 13.4723 11.0893 13.4581 11.0833 13.4485C11.0774 13.4389 11.0266 13.425 10.9704 13.4175C10.9143 13.4101 10.8635 13.3963 10.8577 13.3868C10.8518 13.3774 10.8013 13.3636 10.7454 13.3562C10.6895 13.3488 10.6437 13.3347 10.6437 13.3249C10.6437 13.3151 10.6268 13.3071 10.6062 13.3071C10.5688 13.3071 10.322 13.2376 10.244 13.2051C10.2215 13.1957 10.1338 13.167 10.0493 13.1413C9.96471 13.1157 9.8863 13.0881 9.87502 13.08C9.86375 13.0719 9.81984 13.0588 9.77743 13.0509C9.73502 13.043 9.69527 13.0284 9.6891 13.0184C9.68293 13.0084 9.66227 13 9.6432 12.9996C9.62414 12.9992 9.57164 12.9811 9.52654 12.9594C9.48145 12.9376 9.4238 12.9195 9.39843 12.9191C9.37305 12.9188 9.3523 12.91 9.3523 12.8996C9.3523 12.8893 9.32402 12.8746 9.28943 12.867C9.25485 12.8594 9.2018 12.8403 9.17157 12.8246C9.14131 12.8088 9.10041 12.7959 9.08069 12.7958C9.06098 12.7958 9.04482 12.7869 9.04482 12.7762C9.04482 12.7654 9.01254 12.7506 8.97308 12.7432C8.93362 12.7358 8.90133 12.7223 8.90133 12.7132C8.90133 12.7041 8.87304 12.6905 8.83846 12.6829C8.80388 12.6753 8.75083 12.6562 8.72059 12.6405C8.69034 12.6247 8.65407 12.6118 8.63997 12.6117C8.62589 12.6117 8.61435 12.6024 8.61435 12.5911C8.61435 12.5799 8.60461 12.5707 8.59272 12.5707C8.58083 12.5707 8.52778 12.5515 8.47485 12.5281C8.34778 12.4718 7.62305 12.1133 7.60991 12.1002C7.60427 12.0946 7.55353 12.0669 7.49716 12.0388C7.44079 12.0107 7.39006 11.982 7.38442 11.9751C7.37878 11.9681 7.35111 11.9554 7.32292 11.9468C7.29474 11.9381 7.26706 11.9248 7.26143 11.9172C7.24423 11.894 7.00126 11.7524 6.9786 11.7524C6.96692 11.7524 6.95429 11.7455 6.95052 11.7371C6.94015 11.7138 6.81504 11.6297 6.79077 11.6297C6.77905 11.6297 6.76945 11.6205 6.76945 11.6092C6.76945 11.598 6.75986 11.5888 6.74814 11.5888C6.72386 11.5888 6.59876 11.5047 6.58839 11.4814C6.58462 11.4729 6.5693 11.466 6.55434 11.466C6.53936 11.466 6.50404 11.4386 6.47583 11.4052C6.42022 11.3392 6.42227 11.2655 6.4802 11.248C6.49836 11.2425 6.528 11.2302 6.54608 11.2207C6.56416 11.2112 6.6218 11.1971 6.6742 11.1892C6.72659 11.1814 6.76945 11.168 6.76945 11.1595C6.76945 11.151 6.81521 11.1379 6.87111 11.1305C6.92701 11.1231 6.97776 11.109 6.98387 11.0991C6.98998 11.0892 7.0411 11.0748 7.09746 11.0671C7.15383 11.0594 7.19993 11.0459 7.19993 11.0371C7.19993 11.0284 7.24568 11.0152 7.30158 11.0078C7.35748 11.0004 7.40824 10.9862 7.41435 10.9764C7.42046 10.9665 7.47158 10.9521 7.52793 10.9444C7.5843 10.9366 7.6304 10.923 7.6304 10.9141C7.6304 10.9052 7.681 10.8916 7.74282 10.8839C7.80466 10.8762 7.85989 10.8624 7.86557 10.8532C7.87124 10.8441 7.91728 10.8304 7.9679 10.8228C8.01851 10.8152 8.06463 10.8014 8.07039 10.7921C8.07615 10.7828 8.12385 10.7688 8.17639 10.7609C8.22891 10.7531 8.28667 10.7388 8.30475 10.7293C8.34212 10.7095 8.47186 10.6749 8.62972 10.6425C8.6889 10.6304 8.73734 10.6138 8.73734 10.6058C8.73734 10.5977 8.78793 10.5848 8.84976 10.5771C8.9116 10.5694 8.96682 10.5555 8.9725 10.5464C8.97818 10.5372 9.02674 10.5232 9.08045 10.5152C9.13414 10.5072 9.18729 10.4935 9.19856 10.4848C9.20984 10.476 9.26266 10.4625 9.31596 10.4548C9.36924 10.4471 9.41755 10.4332 9.42329 10.4239C9.42905 10.4146 9.48446 10.4007 9.54645 10.393C9.60844 10.3853 9.66405 10.371 9.67004 10.3614C9.67602 10.3517 9.73151 10.3375 9.79336 10.3297C9.85518 10.322 9.90577 10.3085 9.90577 10.2996C9.90577 10.2908 9.96114 10.2771 10.0288 10.2693C10.0965 10.2615 10.1563 10.2478 10.1618 10.239C10.1672 10.2302 10.2224 10.2166 10.2844 10.2089C10.3464 10.2012 10.4024 10.1863 10.4089 10.1758C10.4154 10.1654 10.4432 10.1568 10.4707 10.1568C10.5126 10.1568 10.5207 10.1468 10.5207 10.0954C10.5207 10.0617 10.5291 10.034 10.5392 10.034C10.5494 10.034 10.5641 9.97881 10.572 9.9113C10.5798 9.84379 10.5937 9.78856 10.6027 9.78856C10.6118 9.78856 10.6256 9.73333 10.6335 9.66582C10.6413 9.59831 10.6552 9.54308 10.6642 9.54308C10.6733 9.54308 10.6871 9.48783 10.695 9.4203C10.7028 9.35277 10.7169 9.29279 10.7263 9.287C10.7357 9.28123 10.7497 9.2259 10.7574 9.16404C10.7652 9.10218 10.7788 9.04709 10.7877 9.0416C10.7966 9.0361 10.8104 8.9833 10.8183 8.92424C10.8263 8.86518 10.84 8.80766 10.8487 8.79641C10.8574 8.78516 10.8708 8.73453 10.8783 8.6839C10.8859 8.63327 10.9004 8.57343 10.9107 8.55093C10.9209 8.52842 10.9394 8.45938 10.9518 8.3975C10.9976 8.16838 11.0233 8.05943 11.0363 8.03951C11.0437 8.02826 11.0564 7.97302 11.0645 7.91677C11.0727 7.86051 11.0866 7.80528 11.0954 7.79403C11.1042 7.78277 11.118 7.72754 11.1261 7.67128C11.1342 7.61503 11.1479 7.5598 11.1565 7.54854C11.1651 7.53729 11.1782 7.48666 11.1858 7.43603C11.1933 7.3854 11.2079 7.32557 11.2181 7.30306C11.2284 7.28056 11.2469 7.21152 11.2593 7.14964C11.2973 6.95921 11.3324 6.81378 11.3494 6.7763C11.3583 6.75662 11.3607 6.72782 11.3547 6.71231C11.3488 6.69681 11.353 6.67506 11.3641 6.66397C11.3752 6.65289 11.3851 6.61494 11.3861 6.57965C11.3871 6.54436 11.3949 6.51548 11.4035 6.51548C11.4121 6.51548 11.4253 6.47866 11.4329 6.43365C11.4406 6.38865 11.4552 6.35182 11.4655 6.35182C11.4758 6.35182 11.4842 6.34088 11.4842 6.32752C11.4842 6.28202 11.5757 6.16978 11.6223 6.1581C11.6478 6.15171 11.6687 6.13744 11.6687 6.12641C11.6687 6.11536 11.6819 6.10634 11.698 6.10634C11.7141 6.10634 11.7397 6.09395 11.7548 6.07879C11.77 6.06365 11.8168 6.04483 11.8588 6.03695C11.9008 6.0291 11.9352 6.01388 11.9352 6.00314C11.9352 5.9924 11.9577 5.9836 11.9852 5.9836C12.0127 5.9836 12.0413 5.97376 12.0488 5.96175C12.0562 5.94972 12.0752 5.94484 12.091 5.95087C12.1067 5.95693 12.1196 5.95306 12.1196 5.94228C12.1196 5.93152 12.1565 5.91683 12.2016 5.90963C12.2467 5.90243 12.2836 5.88977 12.2836 5.88148C12.2836 5.86211 12.4353 5.80573 12.5347 5.7881C12.577 5.78061 12.6116 5.76672 12.6116 5.75723C12.6116 5.74773 12.644 5.73391 12.6836 5.7265C12.7232 5.7191 12.7606 5.70486 12.7668 5.69489C12.773 5.68491 12.7982 5.67669 12.8229 5.67663C12.8476 5.67654 12.8925 5.66368 12.9225 5.64803C12.9526 5.63236 13.0148 5.61319 13.0608 5.60546C13.1068 5.5977 13.1491 5.58375 13.1548 5.57447C13.1606 5.56518 13.2045 5.55104 13.2523 5.54306C13.3002 5.53507 13.3439 5.52228 13.3496 5.51461C13.3593 5.50129 13.4563 5.47431 13.6571 5.42898C13.7078 5.41752 13.7631 5.40247 13.78 5.39551C13.8672 5.35967 14.3356 5.26909 14.5385 5.24883C14.7507 5.22764 14.8883 5.22733 15.092 5.24761ZM8.50068 13.4964C8.49426 13.5442 8.47949 13.6212 8.46782 13.6674C8.45616 13.7137 8.45085 13.8103 8.45601 13.8822C8.47305 14.1186 8.51536 14.4421 8.53196 14.4629C8.54092 14.4742 8.55478 14.5317 8.56273 14.5908C8.57068 14.6498 8.58448 14.7026 8.5934 14.7081C8.60231 14.7136 8.61582 14.7595 8.62341 14.81C8.63101 14.8605 8.6451 14.9067 8.65475 14.9126C8.66438 14.9186 8.67849 14.9602 8.68609 15.005C8.6937 15.0499 8.70729 15.0912 8.71631 15.0968C8.72531 15.1023 8.73877 15.1392 8.7462 15.1787C8.75362 15.2182 8.7685 15.2505 8.77926 15.2505C8.79002 15.2505 8.79884 15.2652 8.79884 15.2832C8.79884 15.3012 8.812 15.3449 8.82811 15.3804C8.91211 15.5654 8.94233 15.639 8.94233 15.6585C8.94233 15.6704 8.95081 15.6801 8.96121 15.6801C8.97158 15.6801 8.98615 15.7077 8.99357 15.7415C9.001 15.7752 9.01483 15.8029 9.02432 15.8029C9.03381 15.8029 9.04765 15.8305 9.05507 15.8642C9.06249 15.898 9.07633 15.9256 9.08582 15.9256C9.09531 15.9256 9.10915 15.9532 9.11657 15.987C9.12399 16.0207 9.13856 16.0483 9.14894 16.0483C9.15933 16.0483 9.16781 16.0586 9.16781 16.0711C9.16781 16.0836 9.21394 16.17 9.27031 16.2631C9.32668 16.3563 9.3728 16.4427 9.3728 16.4552C9.3728 16.4677 9.38203 16.4779 9.3933 16.4779C9.40458 16.4779 9.4138 16.4903 9.4138 16.5055C9.4138 16.5296 9.42883 16.552 9.5134 16.6534C9.52351 16.6655 9.53815 16.6954 9.54592 16.7199C9.55368 16.7443 9.56865 16.7643 9.57916 16.7643C9.58968 16.7643 9.59829 16.7733 9.59829 16.7842C9.59829 16.8078 9.80639 17.1193 9.82876 17.1291C9.83729 17.1329 9.84428 17.1493 9.84428 17.1656C9.84428 17.1819 9.85811 17.2005 9.87502 17.207C9.89194 17.2134 9.90577 17.2301 9.90577 17.2441C9.90577 17.258 9.92422 17.2861 9.94677 17.3064C9.96932 17.3268 9.98777 17.3551 9.98777 17.3693C9.98777 17.3835 9.99525 17.3981 10.0044 17.4019C10.0135 17.4056 10.0701 17.4731 10.1302 17.5519C10.1902 17.6307 10.2612 17.7154 10.2878 17.7402C10.3144 17.7649 10.3362 17.7905 10.3362 17.797C10.3362 17.8144 10.4212 17.9065 10.8193 18.3209C10.9102 18.4155 11.1308 18.631 11.3094 18.7998C11.488 18.9685 11.6511 19.1227 11.6719 19.1424C11.6927 19.1621 11.7138 19.1782 11.7188 19.1782C11.7238 19.1782 11.7868 19.2358 11.8588 19.3061C11.9308 19.3764 12.0482 19.4846 12.1197 19.5464C12.1912 19.6083 12.264 19.6751 12.2815 19.6948C12.299 19.7144 12.32 19.7306 12.3282 19.7306C12.3364 19.7306 12.3879 19.7743 12.4426 19.8277C12.4973 19.8812 12.5692 19.9471 12.6025 19.9742C12.6357 20.0013 12.7003 20.0565 12.7461 20.0969C12.7919 20.1373 12.8832 20.2164 12.949 20.2727C13.0148 20.3289 13.0835 20.3887 13.1017 20.4056C13.1199 20.4225 13.1803 20.4731 13.2358 20.5181C13.2914 20.5631 13.3655 20.6276 13.4005 20.6613C13.4355 20.6951 13.5095 20.7595 13.565 20.8045C13.6205 20.8495 13.6824 20.9025 13.7025 20.9222C13.7226 20.9419 13.7431 20.958 13.7481 20.958C13.7531 20.958 13.7988 20.9971 13.8497 21.0449C13.9835 21.1706 14.1511 21.3148 14.1729 21.323C14.1832 21.3269 14.2314 21.3684 14.28 21.4151C14.3724 21.504 14.5308 21.6406 14.6325 21.7192C14.6654 21.7446 14.7151 21.7908 14.7429 21.8219C14.7972 21.8825 14.8542 21.895 14.8808 21.8522C14.8899 21.8377 14.9231 21.8061 14.9546 21.782C15.0185 21.7331 15.2239 21.5541 15.3258 21.4585C15.3621 21.4244 15.4182 21.3758 15.4503 21.3506C15.5345 21.2845 15.7036 21.1402 15.767 21.0804C15.797 21.052 15.848 21.0081 15.8803 20.9827C15.9617 20.9188 16.1319 20.7739 16.1977 20.7125C16.2278 20.6843 16.2974 20.6248 16.3524 20.5802C16.4653 20.4886 16.5281 20.4334 16.6618 20.3085C16.7129 20.2607 16.7589 20.2215 16.7638 20.2215C16.7688 20.2215 16.7894 20.2054 16.8097 20.1857C16.8299 20.166 16.8959 20.1085 16.9563 20.0579C17.0166 20.0072 17.1054 19.9279 17.1537 19.8815C17.2019 19.8352 17.2674 19.7769 17.2992 19.752C17.392 19.6795 17.6103 19.4845 17.7412 19.3572C17.8077 19.2925 17.8661 19.2396 17.871 19.2396C17.8758 19.2396 17.8966 19.2235 17.9172 19.2038C17.9377 19.1841 18.0588 19.0713 18.1863 18.9532C18.5722 18.5956 18.7613 18.4081 18.7613 18.383C18.7613 18.3698 18.7843 18.3486 18.8125 18.3358C18.8407 18.323 18.8638 18.3001 18.8638 18.2851C18.8638 18.27 18.8773 18.2577 18.8938 18.2577C18.9103 18.2577 18.9332 18.2401 18.9447 18.2187C18.9562 18.1972 19.0304 18.113 19.1094 18.0315C19.1885 17.95 19.2532 17.871 19.2532 17.8557C19.2532 17.8405 19.2631 17.8281 19.2752 17.8281C19.3039 17.8281 19.3557 17.7759 19.3557 17.7471C19.3557 17.7346 19.3699 17.7191 19.3872 17.7124C19.4045 17.7058 19.4319 17.6762 19.448 17.6466C19.4641 17.617 19.51 17.5572 19.55 17.5136C19.59 17.47 19.6281 17.4128 19.6347 17.3865C19.6414 17.3601 19.6643 17.333 19.6857 17.3262C19.7071 17.3195 19.7302 17.2915 19.7371 17.2641C19.744 17.2368 19.7571 17.2144 19.7662 17.2144C19.7752 17.2144 19.8099 17.1703 19.8431 17.1164C19.8763 17.0625 19.9163 17.0046 19.932 16.9876C19.9613 16.956 19.9667 16.9478 20.0732 16.7745C20.1789 16.6024 20.1851 16.5931 20.2115 16.5643C20.2256 16.5489 20.2372 16.5232 20.2372 16.5072C20.2372 16.4911 20.2443 16.4779 20.253 16.4779C20.2617 16.4779 20.2916 16.4344 20.3196 16.3811C20.3475 16.3279 20.382 16.272 20.396 16.2569C20.4101 16.2419 20.4217 16.2164 20.4217 16.2003C20.4217 16.1842 20.4301 16.1711 20.4405 16.1711C20.4509 16.1711 20.4655 16.1435 20.4729 16.1097C20.4803 16.076 20.4939 16.0483 20.5031 16.0483C20.5122 16.0483 20.5261 16.0231 20.5338 15.9923C20.5416 15.9615 20.5546 15.9315 20.5628 15.9258C20.5869 15.9089 20.6676 15.7428 20.6676 15.7102C20.6676 15.6936 20.6761 15.6801 20.6865 15.6801C20.6969 15.6801 20.7115 15.6525 20.7189 15.6187C20.7263 15.585 20.7409 15.5574 20.7513 15.5574C20.7617 15.5574 20.7704 15.5459 20.7708 15.5318C20.7712 15.5177 20.7893 15.4694 20.8111 15.4244C20.8329 15.3794 20.851 15.3309 20.8514 15.3167C20.8518 15.3025 20.8608 15.2749 20.8713 15.2553C20.9198 15.1656 20.9546 15.077 20.9667 15.013C20.9739 14.9746 20.9872 14.9387 20.9962 14.9331C21.0052 14.9275 21.019 14.8839 21.0269 14.8362C21.0348 14.7884 21.0484 14.7401 21.0571 14.7289C21.0659 14.7176 21.0792 14.667 21.0867 14.6164C21.0943 14.5657 21.109 14.5059 21.1194 14.4834C21.1769 14.3588 21.2068 13.7385 21.166 13.5152L21.1461 13.4062L21.2707 13.4168C21.4809 13.4347 22.0164 13.4894 22.2973 13.5218C22.8692 13.5876 22.995 13.6042 23.0148 13.6168C23.026 13.6239 23.1044 13.6365 23.189 13.6446C23.2736 13.6528 23.352 13.6664 23.3632 13.675C23.3745 13.6836 23.4299 13.6973 23.4862 13.7054C23.5426 13.7135 23.5979 13.7273 23.6092 13.7361C23.6205 13.7449 23.6514 13.7588 23.6779 13.7669C23.7323 13.7836 23.7772 13.8245 23.8296 13.9051C23.8695 13.9665 23.8752 14.0261 23.8463 14.0797C23.8357 14.0992 23.8065 14.1587 23.7813 14.212C23.7561 14.2652 23.6795 14.3678 23.6109 14.44C23.5423 14.5121 23.4643 14.5974 23.4375 14.6296C23.4108 14.6617 23.3519 14.7294 23.3067 14.78C23.1043 15.0067 22.9667 15.1601 22.8782 15.2577C22.8256 15.3156 22.7622 15.389 22.7372 15.4208C22.7122 15.4526 22.6537 15.518 22.6072 15.5661C22.5608 15.6143 22.4963 15.6849 22.464 15.7232C22.4317 15.7614 22.3682 15.834 22.3229 15.8847C22.2776 15.9353 22.1841 16.0398 22.1152 16.1169C22.0462 16.1939 21.9468 16.3044 21.8943 16.3623C21.8417 16.4203 21.7782 16.4937 21.7532 16.5254C21.7282 16.5572 21.6697 16.6226 21.6233 16.6708C21.5768 16.7189 21.5124 16.7896 21.4801 16.8278C21.4478 16.866 21.3844 16.9387 21.3393 16.9893C21.2942 17.04 21.2099 17.1345 21.1521 17.1994C21.0942 17.2643 20.9894 17.3794 20.9192 17.4551C20.849 17.5309 20.7913 17.5999 20.7911 17.6085C20.7908 17.6171 20.748 17.665 20.6958 17.7149C20.639 17.7692 20.6055 17.8173 20.6122 17.8347C20.6183 17.8507 20.6654 17.8702 20.7168 17.8778C20.7681 17.8855 20.8149 17.8994 20.8207 17.9088C20.8264 17.9181 20.8632 17.9317 20.9023 17.939C20.9414 17.9464 20.9992 17.9657 21.0306 17.9821C21.0621 17.9985 21.1035 18.012 21.1225 18.0121C21.1416 18.0121 21.1625 18.0207 21.1689 18.0311C21.1753 18.0415 21.2102 18.0564 21.2463 18.0643C21.2824 18.0723 21.3261 18.0865 21.3434 18.0959C21.4172 18.1362 21.5697 18.1963 21.598 18.1963C21.6149 18.1963 21.6339 18.2048 21.6404 18.2152C21.6468 18.2256 21.6796 18.2401 21.7133 18.2475C21.747 18.2549 21.7746 18.269 21.7746 18.2788C21.7746 18.2887 21.8069 18.3028 21.8463 18.3102C21.8858 18.3175 21.9181 18.3318 21.9181 18.3418C21.9181 18.3518 21.9278 18.3599 21.9397 18.3599C21.9642 18.3599 22.1263 18.4284 22.2082 18.4733C22.2381 18.4897 22.2774 18.5031 22.2953 18.5031C22.3133 18.5031 22.328 18.5116 22.328 18.522C22.328 18.5323 22.3557 18.5469 22.3895 18.5543C22.4234 18.5617 22.451 18.5755 22.451 18.585C22.451 18.5944 22.4787 18.6083 22.5125 18.6157C22.5464 18.6231 22.574 18.6369 22.574 18.6463C22.574 18.6558 22.6017 18.6696 22.6355 18.677C22.6694 18.6844 22.697 18.6982 22.697 18.7077C22.697 18.7172 22.7247 18.731 22.7585 18.7384C22.7923 18.7458 22.82 18.7596 22.82 18.7691C22.82 18.7786 22.8477 18.7924 22.8815 18.7998C22.9153 18.8072 22.943 18.8207 22.943 18.8299C22.943 18.839 22.9683 18.8528 22.9992 18.8605C23.0301 18.8683 23.06 18.8808 23.0658 18.8883C23.0715 18.8959 23.1224 18.9251 23.1787 18.9532C23.2351 18.9813 23.2859 19.0097 23.2915 19.0162C23.2971 19.0227 23.3479 19.0504 23.4042 19.0776C23.4606 19.1048 23.5189 19.1386 23.5338 19.1527C23.5487 19.1667 23.5741 19.1782 23.5902 19.1782C23.6063 19.1782 23.6195 19.1867 23.6195 19.1971C23.6195 19.2074 23.6471 19.222 23.681 19.2294C23.7148 19.2368 23.7425 19.2493 23.7425 19.2572C23.7425 19.2651 23.7678 19.2824 23.7988 19.2957C23.8621 19.3229 23.9217 19.36 23.9634 19.3981C23.9788 19.4122 24.0041 19.4237 24.0197 19.4237C24.0503 19.4237 24.0784 19.5324 24.0671 19.6069C24.0604 19.6508 23.9312 19.7408 23.7988 19.7938C23.7678 19.8062 23.7425 19.824 23.7425 19.8332C23.7425 19.8425 23.7148 19.8561 23.681 19.8635C23.6471 19.8709 23.6195 19.8835 23.6195 19.8915C23.6195 19.8995 23.5457 19.9425 23.4556 19.9871C23.3655 20.0316 23.2917 20.075 23.2917 20.0834C23.2916 20.0919 23.2783 20.0988 23.2622 20.0988C23.2461 20.0988 23.2207 20.1108 23.2058 20.1254C23.1909 20.1401 23.1326 20.1739 23.0763 20.2007C23.0199 20.2275 22.9691 20.2546 22.9635 20.261C22.9579 20.2674 22.917 20.2911 22.8728 20.3136C22.8285 20.3361 22.7824 20.3637 22.7703 20.3749C22.7398 20.4033 22.5645 20.4875 22.5359 20.4875C22.5231 20.4875 22.5125 20.4967 22.5125 20.5079C22.5125 20.5192 22.5001 20.5284 22.4849 20.5284C22.4697 20.5284 22.419 20.556 22.3723 20.5897C22.3256 20.6235 22.2773 20.6511 22.2648 20.6511C22.2524 20.6511 22.2188 20.6695 22.1902 20.692C22.1615 20.7145 22.1254 20.7329 22.11 20.7329C22.0946 20.7329 22.0821 20.7414 22.0821 20.7518C22.0821 20.7621 22.0544 20.7767 22.0206 20.7841C21.9867 20.7915 21.9591 20.806 21.9591 20.8164C21.9591 20.8267 21.9459 20.8352 21.9298 20.8352C21.9137 20.8352 21.8883 20.8467 21.8734 20.8608C21.8585 20.8749 21.8048 20.9078 21.7541 20.9339C21.6121 21.0071 21.5398 21.0487 21.5284 21.0637C21.5226 21.0713 21.4927 21.0838 21.4618 21.0915C21.4309 21.0993 21.4056 21.1138 21.4056 21.1238C21.4056 21.1339 21.3924 21.1421 21.3763 21.1421C21.3602 21.1421 21.3348 21.1536 21.3199 21.1676C21.3051 21.1817 21.2513 21.2146 21.2006 21.2408C21.0587 21.314 20.9864 21.3555 20.9749 21.3706C20.9692 21.3781 20.9392 21.3906 20.9083 21.3984C20.8774 21.4061 20.8521 21.4207 20.8521 21.4307C20.8521 21.4407 20.839 21.4489 20.8228 21.4489C20.8068 21.4489 20.7814 21.4604 20.7665 21.4745C20.7516 21.4886 20.6979 21.5215 20.6471 21.5476C20.5052 21.6208 20.4329 21.6624 20.4215 21.6774C20.4157 21.685 20.3857 21.6975 20.3548 21.7052C20.3239 21.713 20.2987 21.7275 20.2987 21.7375C20.2987 21.7476 20.2855 21.7558 20.2694 21.7558C20.2533 21.7558 20.2279 21.7673 20.213 21.7813C20.1981 21.7954 20.1444 21.8283 20.0937 21.8545C19.9517 21.9277 19.8794 21.9692 19.868 21.9843C19.8622 21.9918 19.8323 22.0043 19.8014 22.0121C19.7705 22.0198 19.7452 22.0344 19.7452 22.0444C19.7452 22.0544 19.732 22.0626 19.7159 22.0626C19.6998 22.0626 19.6744 22.0741 19.6595 22.0882C19.6447 22.1023 19.5909 22.1352 19.5402 22.1613C19.3983 22.2345 19.326 22.2761 19.3145 22.2911C19.3088 22.2987 19.2788 22.3112 19.2479 22.3189C19.217 22.3267 19.1917 22.3412 19.1917 22.3512C19.1917 22.3613 19.1785 22.3695 19.1624 22.3695C19.1463 22.3695 19.121 22.381 19.1061 22.395C19.0912 22.4091 19.0375 22.442 18.9867 22.4682C18.8448 22.5414 18.7725 22.5829 18.7611 22.598C18.7553 22.6055 18.7253 22.618 18.6944 22.6258C18.6635 22.6335 18.6383 22.6481 18.6383 22.6581C18.6383 22.6681 18.6251 22.6763 18.609 22.6763C18.5929 22.6763 18.5675 22.6878 18.5526 22.7019C18.5377 22.716 18.484 22.7489 18.4333 22.775C18.2913 22.8482 18.219 22.8898 18.2076 22.9049C18.2018 22.9124 18.1719 22.9249 18.141 22.9326C18.1101 22.9404 18.0848 22.9549 18.0848 22.9649C18.0848 22.975 18.0716 22.9832 18.0555 22.9832C18.0394 22.9832 18.014 22.9947 17.9991 23.0088C17.9842 23.0228 17.9305 23.0557 17.8798 23.0819C17.7379 23.1551 17.6656 23.1966 17.6541 23.2117C17.6484 23.2193 17.6184 23.2318 17.5875 23.2395C17.5566 23.2472 17.5313 23.2618 17.5313 23.2718C17.5313 23.2818 17.5181 23.29 17.502 23.29C17.4859 23.29 17.4606 23.3015 17.4457 23.3156C17.4308 23.3297 17.3771 23.3626 17.3263 23.3887C17.1844 23.4619 17.1121 23.5035 17.1006 23.5186C17.0949 23.5261 17.0649 23.5386 17.034 23.5463C17.0031 23.5541 16.9779 23.5686 16.9779 23.5786C16.9779 23.5887 16.9647 23.5969 16.9486 23.5969C16.9325 23.5969 16.9071 23.6084 16.8922 23.6225C16.8773 23.6365 16.8236 23.6694 16.7729 23.6956C16.6309 23.7688 16.5586 23.8104 16.5472 23.8254C16.5414 23.833 16.5115 23.8455 16.4806 23.8532C16.4497 23.8609 16.4244 23.8755 16.4244 23.8855C16.4244 23.8955 16.4112 23.9037 16.3951 23.9037C16.379 23.9037 16.3536 23.9153 16.3387 23.9293C16.3238 23.9434 16.2701 23.9763 16.2194 24.0024C16.0775 24.0756 16.0052 24.1172 15.9937 24.1323C15.988 24.1398 15.958 24.1523 15.9271 24.16C15.8962 24.1678 15.8709 24.1823 15.8709 24.1923C15.8709 24.2024 15.8577 24.2106 15.8416 24.2106C15.8255 24.2106 15.8002 24.2221 15.7853 24.2362C15.7704 24.2502 15.7167 24.2831 15.6659 24.3093C15.524 24.3825 15.4517 24.4241 15.4402 24.4391C15.4345 24.4467 15.4045 24.4592 15.3736 24.4669C15.3427 24.4746 15.3175 24.4892 15.3175 24.4992C15.3175 24.5092 15.3043 24.5174 15.2882 24.5174C15.2721 24.5174 15.2467 24.529 15.2318 24.543C15.2169 24.5571 15.1632 24.59 15.1125 24.6161C14.9608 24.6943 14.898 24.7312 14.8842 24.7501C14.8666 24.7742 14.7626 24.773 14.7463 24.7485C14.7391 24.7377 14.6871 24.7067 14.6307 24.6795C14.5744 24.6523 14.5236 24.6254 14.518 24.6197C14.5123 24.6141 14.4801 24.5951 14.4462 24.5774C14.2919 24.4969 14.2 24.4438 14.1742 24.4203C14.1587 24.4062 14.1329 24.3947 14.1168 24.3947C14.1007 24.3947 14.0875 24.3865 14.0875 24.3765C14.0875 24.3664 14.0623 24.3519 14.0314 24.3442C14.0005 24.3364 13.9705 24.3239 13.9647 24.3164C13.959 24.3088 13.9266 24.2882 13.8928 24.2706C13.7384 24.19 13.6466 24.137 13.6207 24.1134C13.6053 24.0994 13.5794 24.0878 13.5634 24.0878C13.5472 24.0878 13.5341 24.0794 13.5341 24.069C13.5341 24.0587 13.5064 24.0441 13.4726 24.0367C13.4387 24.0293 13.4111 24.0168 13.4111 24.0089C13.4111 24.001 13.3857 23.9835 13.3547 23.9699C13.3237 23.9564 13.2522 23.917 13.1958 23.8824C13.1395 23.8477 13.068 23.8088 13.037 23.7957C13.0059 23.7827 12.9806 23.7656 12.9806 23.7577C12.9806 23.7498 12.9529 23.7373 12.9191 23.7299C12.8853 23.7224 12.8576 23.7088 12.8576 23.6995C12.8576 23.6903 12.8322 23.6726 12.8012 23.6602C12.7702 23.6477 12.6987 23.6095 12.6424 23.5751C12.586 23.5407 12.5145 23.5019 12.4835 23.4889C12.4525 23.4758 12.4271 23.4587 12.4271 23.4508C12.4271 23.4429 12.3995 23.4304 12.3656 23.423C12.3318 23.4156 12.3041 23.4017 12.3041 23.3921C12.3041 23.3825 12.2838 23.3682 12.259 23.3603C12.2341 23.3524 12.2012 23.3334 12.1858 23.318C12.1703 23.3026 12.1445 23.29 12.1284 23.29C12.1123 23.29 12.099 23.2831 12.0987 23.2747C12.0985 23.2663 12.0479 23.2363 11.9864 23.2082C11.9249 23.1801 11.8743 23.1509 11.8741 23.1433C11.8738 23.1358 11.846 23.1236 11.8122 23.1161C11.7783 23.1087 11.7507 23.0963 11.7507 23.0885C11.7507 23.0807 11.7068 23.0516 11.6533 23.0237C11.5998 22.9958 11.5513 22.9683 11.5457 22.9627C11.54 22.9571 11.4893 22.9295 11.4329 22.9014C11.3766 22.8732 11.3258 22.8456 11.3202 22.84C11.3145 22.8344 11.2822 22.8153 11.2484 22.7977C11.1004 22.7205 11.0018 22.6652 10.9923 22.6542C10.9866 22.6477 10.9358 22.6201 10.8795 22.5929C10.8231 22.5657 10.7724 22.5388 10.7667 22.5332C10.7611 22.5275 10.7288 22.5085 10.695 22.4908C10.5406 22.4103 10.4487 22.3572 10.4229 22.3337C10.4074 22.3196 10.3816 22.3081 10.3655 22.3081C10.3494 22.3081 10.3362 22.2999 10.3362 22.2899C10.3362 22.2798 10.311 22.2653 10.2801 22.2576C10.2492 22.2498 10.2192 22.2373 10.2134 22.2298C10.2077 22.2222 10.1753 22.2016 10.1415 22.184C9.98715 22.1034 9.89528 22.0504 9.86943 22.0268C9.85397 22.0128 9.82816 22.0013 9.81207 22.0013C9.79596 22.0013 9.78278 21.9928 9.78278 21.9824C9.78278 21.9721 9.75511 21.9575 9.72128 21.9501C9.68746 21.9427 9.65979 21.9302 9.65979 21.9223C9.65979 21.9144 9.63441 21.8969 9.60341 21.8833C9.57242 21.8698 9.50092 21.8304 9.44455 21.7958C9.38818 21.7611 9.31668 21.7222 9.28568 21.7091C9.25469 21.6961 9.22931 21.679 9.22931 21.6711C9.22931 21.6632 9.20164 21.6507 9.16781 21.6433C9.13399 21.6359 9.10632 21.6222 9.10632 21.6129C9.10632 21.6037 9.08094 21.586 9.04995 21.5736C9.01895 21.5611 8.94745 21.5233 8.89108 21.4895C8.83471 21.4557 8.73785 21.4029 8.67584 21.3721C8.61383 21.3414 8.55267 21.3064 8.5399 21.2944C8.52715 21.2824 8.45567 21.2413 8.38103 21.2031C8.30641 21.1649 8.24537 21.1264 8.24537 21.1174C8.24537 21.1085 8.23485 21.1012 8.222 21.1012C8.19344 21.1012 8.0181 21.017 7.98762 20.9886C7.97552 20.9774 7.9294 20.9498 7.88512 20.9273C7.84087 20.9048 7.80003 20.8818 7.79439 20.8761C7.78876 20.8705 7.73802 20.8429 7.68165 20.8148C7.62528 20.7866 7.57455 20.759 7.56889 20.7534C7.56325 20.7478 7.53096 20.7287 7.49714 20.7111C7.34914 20.6339 7.25054 20.5786 7.24099 20.5676C7.23531 20.5611 7.18456 20.5335 7.12818 20.5063C7.07181 20.4791 7.02108 20.4522 7.01542 20.4466C7.00978 20.4409 6.9775 20.4219 6.94367 20.4042C6.78934 20.3237 6.69746 20.2706 6.67161 20.2471C6.65616 20.233 6.63035 20.2215 6.61426 20.2215C6.59815 20.2215 6.58497 20.2133 6.58497 20.2033C6.58497 20.1932 6.55969 20.1787 6.5288 20.171C6.49791 20.1632 6.46792 20.1507 6.46216 20.1432C6.4564 20.1356 6.42403 20.115 6.39021 20.0974C6.23587 20.0168 6.14399 19.9638 6.11815 19.9402C6.10269 19.9262 6.07688 19.9147 6.06079 19.9147C6.04468 19.9147 6.0315 19.9062 6.0315 19.8958C6.0315 19.8855 6.00382 19.8709 5.97 19.8635C5.93618 19.8561 5.9085 19.8436 5.9085 19.8357C5.9085 19.8278 5.88313 19.8103 5.85213 19.7967C5.70995 19.7346 5.59045 19.6501 5.58386 19.6069C5.57253 19.5324 5.60063 19.4237 5.63124 19.4237C5.64684 19.4237 5.67217 19.4122 5.68755 19.3981C5.73004 19.3593 5.78967 19.3232 5.85213 19.2987C5.88313 19.2865 5.9085 19.2689 5.9085 19.2597C5.9085 19.2504 5.93618 19.2368 5.97 19.2294C6.00382 19.222 6.0315 19.2074 6.0315 19.1971C6.0315 19.1867 6.04468 19.1782 6.06079 19.1782C6.07688 19.1782 6.10226 19.1667 6.11716 19.1527C6.13204 19.1386 6.19036 19.1048 6.24673 19.0776C6.30311 19.0504 6.35384 19.0227 6.35948 19.0162C6.36512 19.0097 6.41585 18.9813 6.47222 18.9532C6.52859 18.9251 6.57943 18.8959 6.58517 18.8883C6.59093 18.8808 6.6209 18.8683 6.65179 18.8605C6.68268 18.8528 6.70796 18.839 6.70796 18.8299C6.70796 18.8207 6.73563 18.8072 6.76945 18.7998C6.80328 18.7924 6.83095 18.7786 6.83095 18.7691C6.83095 18.7596 6.85862 18.7458 6.89245 18.7384C6.92627 18.731 6.95394 18.7172 6.95394 18.7077C6.95394 18.6982 6.98162 18.6844 7.01544 18.677C7.04926 18.6696 7.07694 18.6558 7.07694 18.6463C7.07694 18.6369 7.10461 18.6231 7.13843 18.6157C7.17226 18.6083 7.19993 18.5944 7.19993 18.585C7.19993 18.5755 7.2276 18.5617 7.26143 18.5543C7.29525 18.5469 7.32292 18.5323 7.32292 18.522C7.32292 18.5116 7.33764 18.5031 7.35564 18.5031C7.37362 18.5031 7.41283 18.4897 7.44276 18.4733C7.52467 18.4284 7.68676 18.3599 7.71127 18.3599C7.72316 18.3599 7.7329 18.3518 7.7329 18.3418C7.7329 18.3318 7.76518 18.3175 7.80464 18.3102C7.8441 18.3028 7.87639 18.2887 7.87639 18.2788C7.87639 18.269 7.90396 18.2549 7.93766 18.2475C7.97134 18.2401 8.00418 18.2256 8.01062 18.2152C8.01703 18.2048 8.0361 18.1963 8.05297 18.1963C8.08123 18.1963 8.23372 18.1362 8.30754 18.0959C8.32482 18.0865 8.36853 18.0723 8.40466 18.0643C8.4408 18.0564 8.47565 18.0415 8.48209 18.0311C8.48851 18.0207 8.50937 18.0121 8.52844 18.0121C8.5475 18.012 8.58887 17.9985 8.62033 17.9821C8.65182 17.9657 8.70956 17.9464 8.74868 17.939C8.78779 17.9317 8.82452 17.9181 8.83028 17.9088C8.83606 17.8994 8.88282 17.8855 8.93419 17.8778C9.05327 17.86 9.06862 17.821 8.98613 17.7458C8.95077 17.7136 8.92183 17.6821 8.92183 17.6758C8.92183 17.6695 8.90568 17.6477 8.88596 17.6272C8.86624 17.6068 8.79935 17.5317 8.73734 17.4602C8.67533 17.3888 8.58079 17.2854 8.52723 17.2305C8.47366 17.1755 8.42986 17.1258 8.42986 17.1199C8.42986 17.114 8.41834 17.0974 8.40423 17.0831C8.39015 17.0687 8.32326 16.9943 8.25562 16.9177C8.18797 16.8411 8.08882 16.7333 8.03526 16.6783C7.98169 16.6233 7.9377 16.5718 7.93746 16.5639C7.93723 16.556 7.87957 16.4883 7.80934 16.4134C7.73911 16.3385 7.63092 16.2195 7.56891 16.1489C7.5069 16.0784 7.41927 15.9792 7.37417 15.9286C7.32907 15.878 7.26911 15.8104 7.24093 15.7784C7.21274 15.7464 7.15168 15.6796 7.10523 15.63C7.05877 15.5805 7.00031 15.5139 6.9753 15.4822C6.95029 15.4504 6.88683 15.377 6.83427 15.319C6.78171 15.2611 6.68229 15.1506 6.61334 15.0736C6.5444 14.9965 6.45092 14.892 6.40562 14.8414C6.36032 14.7908 6.29681 14.7181 6.26449 14.6799C6.23218 14.6416 6.16884 14.5719 6.12374 14.525C6.00395 14.4002 5.88801 14.2548 5.88801 14.2294C5.88801 14.2172 5.88069 14.2072 5.87173 14.2072C5.86277 14.2072 5.84006 14.1573 5.82124 14.0963C5.78969 13.9941 5.78959 13.9803 5.82001 13.9195C5.85074 13.858 5.91754 13.7776 5.93792 13.7776C5.94282 13.7776 5.97281 13.7667 6.00454 13.7534C6.20691 13.6683 7.13439 13.5296 7.9311 13.4652C8.1021 13.4514 8.24894 13.4332 8.25736 13.4248C8.26581 13.4163 8.32663 13.4094 8.39251 13.4094H8.51234L8.50068 13.4964ZM18.2693 13.8889C18.2693 13.9164 18.2612 13.9438 18.2514 13.9499C18.2416 13.9559 18.228 13.9888 18.2212 14.0229C18.1918 14.1692 17.9456 14.4537 17.7751 14.5384C17.6187 14.6161 17.5103 14.6573 17.4619 14.6573C17.4338 14.6573 17.4059 14.6652 17.3999 14.6748C17.3939 14.6845 17.3269 14.6988 17.2509 14.7065C17.175 14.7143 17.1033 14.7281 17.0915 14.7372C17.0797 14.7463 16.9728 14.765 16.8539 14.7787C16.617 14.8059 16.353 14.784 16.2456 14.7281C16.2143 14.7118 16.1733 14.6984 16.1545 14.6983C16.1357 14.6982 16.1173 14.6913 16.1135 14.6828C16.1054 14.6646 15.9804 14.5754 15.963 14.5754C15.9422 14.5754 15.81 14.424 15.7977 14.3862C15.7914 14.3665 15.7786 14.3504 15.7694 14.3504C15.7602 14.3504 15.7479 14.332 15.742 14.3095C15.7345 14.2811 15.7416 14.2681 15.7652 14.2671C15.8007 14.2656 15.9397 14.2494 16.3526 14.1987C16.8375 14.1391 16.9276 14.1263 16.9984 14.1072C17.0378 14.0966 17.1301 14.0815 17.2033 14.0736C17.2766 14.0658 17.3458 14.0535 17.3571 14.0464C17.3761 14.0343 17.4589 14.0187 17.8234 13.9584C17.8995 13.9458 17.9618 13.9288 17.9618 13.9206C17.9618 13.9124 18.0169 13.8994 18.0842 13.8918C18.1515 13.8842 18.212 13.8692 18.2186 13.8585C18.2412 13.822 18.2693 13.8388 18.2693 13.8889ZM11.6687 13.9216C11.6856 13.9302 11.7455 13.9434 11.8019 13.9509C11.8583 13.9584 11.9229 13.9725 11.9454 13.9823C11.9843 13.999 12.0518 14.0113 12.4374 14.0718C12.5276 14.0859 12.6152 14.1033 12.6321 14.1105C12.6621 14.1231 12.8417 14.147 13.2163 14.188C13.3178 14.1992 13.4423 14.2168 13.4931 14.2273C13.5438 14.2378 13.6741 14.2524 13.7827 14.2597C13.9629 14.2719 13.9791 14.2764 13.9699 14.3118C13.9643 14.333 13.9522 14.3504 13.943 14.3504C13.9338 14.3504 13.9203 14.3693 13.913 14.3924C13.9005 14.4316 13.7707 14.5754 13.7478 14.5754C13.735 14.5754 13.6097 14.6623 13.5954 14.6812C13.5896 14.6888 13.5573 14.7015 13.5236 14.7096C13.4899 14.7177 13.453 14.7315 13.4417 14.7403C13.3871 14.7826 13.0727 14.8033 12.8586 14.7787C12.7397 14.765 12.6331 14.7466 12.6217 14.7378C12.6103 14.729 12.5411 14.7153 12.4679 14.7073C12.3948 14.6994 12.3257 14.6861 12.3144 14.6777C12.3031 14.6694 12.2582 14.6562 12.2145 14.6483C12.1708 14.6405 12.1201 14.626 12.1017 14.6162C12.0834 14.6065 12.0229 14.5772 11.9674 14.5512C11.7692 14.4584 11.5492 14.2119 11.4867 14.0129C11.4726 13.9679 11.4563 13.9196 11.4504 13.9057C11.4425 13.8865 11.4642 13.8834 11.5389 13.8932C11.5934 13.9002 11.6518 13.9131 11.6687 13.9216ZM11.3202 15.0869C11.3261 15.0963 11.3578 15.1108 11.3908 15.1191C11.4237 15.1274 11.4744 15.1464 11.5033 15.1615C11.5322 15.1766 11.5721 15.1889 11.5918 15.189C11.6115 15.1891 11.6277 15.1978 11.6277 15.2084C11.6277 15.2189 11.6692 15.2338 11.7199 15.2414C11.7707 15.2489 11.8122 15.2628 11.8122 15.272C11.8122 15.2813 11.8537 15.2951 11.9044 15.3027C11.9551 15.3103 11.9967 15.3232 11.9967 15.3312C11.9967 15.3393 12.0451 15.3563 12.1043 15.3689C12.1635 15.3815 12.2626 15.4025 12.3246 15.4157C12.3866 15.4288 12.4558 15.4473 12.4784 15.4567C12.5183 15.4733 12.6466 15.4973 12.9191 15.5391C12.9924 15.5504 13.08 15.5679 13.1138 15.5781C13.1477 15.5883 13.263 15.6023 13.3701 15.6093C13.4772 15.6163 13.5879 15.6306 13.6161 15.6411C13.7243 15.6815 15.3175 15.738 15.3175 15.7014C15.3175 15.6882 15.3936 15.6794 15.5173 15.6782C15.8552 15.6749 16.7995 15.5679 16.9369 15.5174C16.965 15.507 17.0388 15.4923 17.1009 15.4847C17.1629 15.4772 17.2228 15.4638 17.2341 15.4551C17.2454 15.4464 17.303 15.4327 17.3622 15.4248C17.4214 15.4168 17.4744 15.4029 17.4801 15.3937C17.4857 15.3846 17.5365 15.3708 17.5928 15.363C17.6492 15.3553 17.6998 15.3417 17.7053 15.3328C17.7108 15.3239 17.7569 15.3104 17.8078 15.3028C17.8587 15.2952 17.9003 15.2813 17.9003 15.272C17.9003 15.2628 17.9418 15.2489 17.9926 15.2414C18.0433 15.2338 18.0848 15.2197 18.0848 15.21C18.0848 15.2003 18.1145 15.1859 18.1507 15.1779C18.187 15.17 18.2308 15.1558 18.2481 15.1464C18.4787 15.0206 18.5768 15.0271 18.5768 15.1683C18.5768 15.2135 18.5683 15.2505 18.558 15.2505C18.5477 15.2505 18.5328 15.3196 18.5249 15.4039C18.5169 15.4883 18.5032 15.5574 18.4944 15.5574C18.4855 15.5574 18.4719 15.6126 18.464 15.6802C18.4562 15.7477 18.4423 15.8075 18.4332 15.8131C18.4241 15.8188 18.4103 15.8694 18.4025 15.9256C18.3948 15.9818 18.3809 16.0325 18.3716 16.0382C18.3624 16.0439 18.3485 16.0861 18.3407 16.1319C18.333 16.1778 18.3138 16.2399 18.2981 16.2699C18.2824 16.2999 18.2695 16.3452 18.2694 16.3705C18.2693 16.3958 18.2611 16.4166 18.2511 16.4166C18.2411 16.4166 18.2266 16.4499 18.2189 16.4907C18.2113 16.5314 18.1967 16.5798 18.1866 16.5981C18.1765 16.6164 18.1488 16.6774 18.1251 16.7336C18.0572 16.8945 17.954 17.0993 17.9259 17.1289C17.9118 17.1438 17.9003 17.1691 17.9003 17.1851C17.9003 17.2012 17.8911 17.2144 17.8798 17.2144C17.8685 17.2144 17.8593 17.2244 17.8593 17.2367C17.8593 17.249 17.8432 17.2802 17.8234 17.306C17.8037 17.3317 17.7737 17.3742 17.7568 17.4004C17.7184 17.4598 17.4355 17.7421 17.2737 17.8825C17.1635 17.9781 17.1225 18.0125 16.9611 18.1452C16.9337 18.1677 16.8799 18.216 16.8414 18.2526C16.803 18.2891 16.7631 18.319 16.7527 18.319C16.7424 18.319 16.7265 18.3309 16.7175 18.3453C16.7085 18.3598 16.655 18.408 16.5986 18.4525C16.5423 18.4969 16.4777 18.5519 16.4551 18.5745C16.4326 18.5971 16.3495 18.666 16.2706 18.7275C16.1917 18.789 16.1087 18.858 16.0862 18.8809C16.0636 18.9039 16.0175 18.9436 15.9837 18.9692C15.8657 19.0585 15.7819 19.1275 15.7234 19.1833C15.691 19.2143 15.6579 19.2397 15.6499 19.2398C15.6418 19.24 15.597 19.2745 15.5503 19.3166C15.5037 19.3586 15.4299 19.4219 15.3864 19.4573C15.3428 19.4926 15.2749 19.5478 15.2355 19.58C15.196 19.6122 15.1517 19.6477 15.137 19.6589C15.1222 19.6702 15.0827 19.7047 15.0491 19.7357C15.0156 19.7666 14.9803 19.7919 14.9708 19.7919C14.9613 19.7919 14.942 19.8057 14.928 19.8226C14.9139 19.8395 14.8709 19.8533 14.8324 19.8533C14.7634 19.8533 14.7329 19.8374 14.6657 19.7664C14.6471 19.7467 14.625 19.7306 14.6166 19.7306C14.6083 19.7306 14.5747 19.7052 14.542 19.6743C14.4476 19.585 14.2689 19.4346 14.2475 19.4266C14.2367 19.4226 14.1975 19.3904 14.1603 19.355C14.0905 19.2888 14.0472 19.2519 13.8863 19.1213C13.8348 19.0795 13.7675 19.0222 13.7368 18.9941C13.7061 18.966 13.6461 18.9154 13.6034 18.8816C13.5607 18.8478 13.5117 18.8041 13.4946 18.7844C13.4775 18.7647 13.4566 18.7486 13.4482 18.7486C13.4398 18.7486 13.4015 18.7187 13.363 18.6821C13.2911 18.6138 13.2488 18.5776 13.0869 18.4462C13.0353 18.4044 12.9685 18.3472 12.9384 18.319C12.8727 18.2577 12.7025 18.1127 12.6214 18.0491C12.5893 18.0239 12.5339 17.9754 12.4983 17.9413C12.4627 17.9071 12.3755 17.8286 12.3045 17.7667C12.1448 17.6276 12.0178 17.4954 11.9408 17.3883C11.7882 17.1761 11.5866 16.7945 11.5544 16.6569C11.5472 16.626 11.533 16.6007 11.523 16.6007C11.5129 16.6007 11.5046 16.5845 11.5046 16.5649C11.5045 16.5452 11.4915 16.5044 11.4757 16.4742C11.46 16.444 11.4405 16.3888 11.4325 16.3514C11.4245 16.3141 11.411 16.2744 11.4025 16.2631C11.394 16.2519 11.3806 16.207 11.3727 16.1634C11.3648 16.1199 11.3504 16.0692 11.3407 16.0509C11.3204 16.0127 11.2852 15.8795 11.2564 15.7313C11.2454 15.675 11.2305 15.6152 11.2233 15.5983C11.2037 15.5528 11.1549 15.2966 11.1427 15.1756C11.1337 15.0853 11.1375 15.0686 11.1698 15.06C11.2162 15.0476 11.3058 15.0636 11.3202 15.0869Z" fill="#01D676"/>
</svg>
