<svg width="101" height="13" viewBox="0 0 101 13" fill="none" xmlns="http://www.w3.org/2000/svg">
<path d="M4.71338 0.870595L4.18397 5.21177H8.94868L9.47809 0.870595C9.51338 0.564713 9.67809 0.411772 9.97221 0.411772H11.684C11.9546 0.411772 12.0722 0.564713 12.0369 0.870595L10.6781 11.953C10.6428 12.2588 10.4899 12.4118 10.2193 12.4118H8.5075C8.21338 12.4118 8.08397 12.2588 8.11926 11.953L8.70162 7.27648H3.93691L3.35456 11.953C3.31926 12.2588 3.16044 12.4118 2.87809 12.4118H1.18397C0.889852 12.4118 0.76044 12.2588 0.795734 11.953L2.15456 0.870595C2.18985 0.564713 2.35456 0.411772 2.64868 0.411772H4.34279C4.62515 0.411772 4.74868 0.564713 4.71338 0.870595ZM20.2795 11.9706L19.8206 9.88824H15.7089L14.7383 11.9706C14.6089 12.2647 14.4089 12.4118 14.1383 12.4118H12.4971C12.1795 12.4118 12.0912 12.2647 12.2324 11.9706L17.4736 0.852949C17.6148 0.558831 17.8265 0.411772 18.1089 0.411772H19.8206C20.103 0.411772 20.2795 0.558831 20.3501 0.852949L22.8559 11.9706C22.9148 12.2647 22.7912 12.4118 22.4854 12.4118H20.7912C20.5206 12.4118 20.3501 12.2647 20.2795 11.9706ZM17.5971 5.88236L16.6442 7.89413H19.3971L18.9559 5.90001C18.7795 5.07648 18.6795 4.05883 18.6559 2.84707C18.3265 4.08236 17.9736 5.09413 17.5971 5.88236ZM31.3126 9.09413L31.3832 8.49413C31.4185 8.20001 31.5773 8.05295 31.8597 8.05295H33.5185C33.7891 8.05295 33.9067 8.20001 33.8714 8.49413L33.7479 9.51766C33.5008 11.5647 31.8303 12.5882 28.7361 12.5882C27.8185 12.5882 27.0361 12.5 26.3891 12.3235C25.742 12.1353 25.2597 11.8824 24.942 11.5647C24.6361 11.2353 24.4244 10.9 24.3067 10.5588C24.2008 10.2059 24.1714 9.82354 24.2185 9.41177L24.9597 3.32354C25.2185 1.26471 26.895 0.235301 29.9891 0.235301C31.7185 0.235301 32.9244 0.535301 33.6067 1.1353C34.2891 1.7353 34.5891 2.45295 34.5067 3.28824L34.4185 4.11765C34.3832 4.41177 34.2244 4.55883 33.942 4.55883H32.2832C31.9773 4.55883 31.8538 4.41177 31.9126 4.11765L31.9655 3.80001C32.0479 3.29413 31.9185 2.92354 31.5773 2.68824C31.2361 2.44118 30.6597 2.31765 29.8479 2.31765C28.3773 2.31765 27.5832 2.79413 27.4655 3.74707L26.8126 9.04118C26.7538 9.5353 26.8891 9.90589 27.2185 10.1529C27.5597 10.3882 28.1302 10.5059 28.9302 10.5059C30.4126 10.5059 31.2067 10.0353 31.3126 9.09413ZM38.0455 11.9706C38.0102 12.2647 37.8573 12.4118 37.5867 12.4118H35.8749C35.5808 12.4118 35.4514 12.2647 35.4867 11.9706L36.8455 0.852949C36.8808 0.558831 37.0455 0.411772 37.3396 0.411772H39.0514C39.322 0.411772 39.4396 0.558831 39.4043 0.852949L38.8396 5.52942H39.5102L43.5337 0.852949C43.7808 0.558831 44.0455 0.411772 44.3279 0.411772H46.322C46.4749 0.411772 46.5632 0.458831 46.5867 0.552948C46.622 0.647066 46.5867 0.752948 46.4808 0.870595L41.6632 6.30589L45.6337 11.953C45.7043 12.0588 45.7161 12.1647 45.669 12.2706C45.622 12.3647 45.5279 12.4118 45.3867 12.4118H43.1632C42.9396 12.4118 42.7279 12.2647 42.5279 11.9706L39.422 7.41766H38.6102L38.0455 11.9706ZM54.744 12.4118H47.4558C47.1617 12.4118 47.0323 12.2588 47.0676 11.953L48.4264 0.870595C48.4617 0.564713 48.6264 0.411772 48.9205 0.411772H55.997C56.3029 0.411772 56.4382 0.552949 56.4029 0.835302L56.244 2.05295C56.2087 2.3353 56.044 2.47648 55.7499 2.47648H50.7911L50.4558 5.21177H55.0793C55.244 5.21177 55.3499 5.24707 55.397 5.31766C55.4558 5.37648 55.4793 5.48236 55.4676 5.6353L55.3264 6.78236C55.2911 7.06471 55.1264 7.20589 54.8323 7.20589H50.2087L49.8205 10.3471H54.9911C55.1558 10.3471 55.2676 10.3765 55.3264 10.4353C55.3852 10.4941 55.4087 10.6 55.397 10.7529L55.2382 11.9706C55.2029 12.2647 55.0382 12.4118 54.744 12.4118ZM59.8286 11.953C59.7933 12.2588 59.6345 12.4118 59.3521 12.4118H57.658C57.3639 12.4118 57.2345 12.2588 57.2698 11.953L58.6286 0.870595C58.6639 0.564713 58.8286 0.411772 59.1227 0.411772H63.7286C65.3051 0.411772 66.4345 0.711773 67.1168 1.31177C67.7992 1.90001 68.0874 2.6706 67.9815 3.62354L67.8227 5.00001C67.658 6.37648 66.8227 7.26471 65.3168 7.66471L66.8874 11.9177C66.9345 12.0588 66.9109 12.1765 66.8168 12.2706C66.7345 12.3647 66.6168 12.4118 66.4639 12.4118H64.6992C64.4757 12.4118 64.3051 12.2588 64.1874 11.953L62.7051 7.92942H60.3227L59.8286 11.953ZM63.5698 2.49413H60.9933L60.5698 5.84707H63.1992C64.5286 5.84707 65.2404 5.44118 65.3345 4.62942L65.4227 3.94118C65.4815 3.44707 65.358 3.08236 65.0521 2.84707C64.758 2.61177 64.2639 2.49413 63.5698 2.49413Z" fill="white"/>
<path d="M75.0033 12.4118H70.0092C69.668 12.4118 69.4974 12.2353 69.4974 11.8824V0.941184C69.4974 0.588243 69.668 0.411772 70.0092 0.411772H74.3856C75.9974 0.411772 77.1739 0.664714 77.915 1.1706C78.6562 1.67648 79.0268 2.34118 79.0268 3.16471V4.06471C79.0268 5.00589 78.5562 5.68824 77.615 6.11177C78.968 6.51177 79.6445 7.24707 79.6445 8.31766V9.50001C79.6445 10.3588 79.2739 11.0588 78.5327 11.6C77.7915 12.1412 76.615 12.4118 75.0033 12.4118ZM74.2974 2.79413H72.6209V5.21177H74.2974C75.3915 5.21177 75.9386 4.84707 75.9386 4.11765V3.69413C75.9386 3.34118 75.7974 3.10589 75.515 2.98824C75.2327 2.85883 74.8268 2.79413 74.2974 2.79413ZM74.915 7.4706H72.6209V10.0294H74.915C76.0092 10.0294 76.5562 9.6706 76.5562 8.95295V8.45883C76.5562 8.14118 76.4033 7.90001 76.0974 7.7353C75.7915 7.55883 75.3974 7.4706 74.915 7.4706ZM89.1355 12.4118H81.9002C81.5591 12.4118 81.3885 12.2353 81.3885 11.8824V0.941184C81.3885 0.588243 81.5591 0.411772 81.9002 0.411772H88.9414C89.2944 0.411772 89.4708 0.576478 89.4708 0.90589V2.38824C89.4708 2.72942 89.2944 2.90001 88.9414 2.90001H84.512V5.05295H88.6238C88.9767 5.05295 89.1532 5.21765 89.1532 5.54707V6.94118C89.1532 7.28236 88.9767 7.45295 88.6238 7.45295H84.512V9.92354H89.1355C89.4885 9.92354 89.665 10.0882 89.665 10.4177V11.9C89.665 12.2412 89.4885 12.4118 89.1355 12.4118ZM91.0822 0.411772H99.7116C100.065 0.411772 100.241 0.576478 100.241 0.90589V2.38824C100.241 2.72942 100.065 2.90001 99.7116 2.90001H96.9587V11.8824C96.9587 12.2353 96.794 12.4118 96.4646 12.4118H94.3469C94.0058 12.4118 93.8352 12.2353 93.8352 11.8824V2.90001H91.0822C90.7293 2.90001 90.5528 2.72942 90.5528 2.38824V0.90589C90.5528 0.576478 90.7293 0.411772 91.0822 0.411772Z" fill="#01D676"/>
</svg>
